<svg xmlns="http://www.w3.org/2000/svg" xmlns:xlink="http://www.w3.org/1999/xlink" xmlns:lucid="lucid" width="1760" height="1360"><g transform="translate(0 0)" lucid:page-tab-id="HWEp-vi-RSFO"><path d="M0 0h1760v1360H0z" fill="#fff"/><path d="M662.5 200H980v219H662.5z" stroke="#333" stroke-width="2" fill="#fff"/><path d="M662.5 237.6H980m-317.5 79.7H980" stroke="#333" stroke-width="2" fill="none"/><use xlink:href="#a" transform="matrix(1,0,0,1,670.5029726516052,208) translate(102.15 14.6)"/><use xlink:href="#b" transform="matrix(1,0,0,1,674.5029726516052,245.6) translate(0 24.799999999999997)"/><use xlink:href="#c" transform="matrix(1,0,0,1,674.5029726516052,245.6) translate(15.5 24.799999999999997)"/><use xlink:href="#d" transform="matrix(1,0,0,1,674.5029726516052,245.6) translate(105.4 24.799999999999997)"/><use xlink:href="#b" transform="matrix(1,0,0,1,674.5029726516052,245.6) translate(0 46.4)"/><use xlink:href="#e" transform="matrix(1,0,0,1,674.5029726516052,245.6) translate(15.5 46.4)"/><use xlink:href="#f" transform="matrix(1,0,0,1,674.5029726516052,245.6) translate(125.45 46.4)"/><use xlink:href="#b" transform="matrix(1,0,0,1,674.5029726516052,325.3) translate(0 25)"/><use xlink:href="#g" transform="matrix(1,0,0,1,674.5029726516052,325.3) translate(15.5 25)"/><use xlink:href="#b" transform="matrix(1,0,0,1,674.5029726516052,325.3) translate(0 46.6)"/><use xlink:href="#h" transform="matrix(1,0,0,1,674.5029726516052,325.3) translate(15.5 46.6)"/><use xlink:href="#b" transform="matrix(1,0,0,1,674.5029726516052,325.3) translate(0 68.2)"/><use xlink:href="#i" transform="matrix(1,0,0,1,674.5029726516052,325.3) translate(15.5 68.2)"/><path d="M453.15 75c0-4.42 3.58-8 8-8h836.75c4.4 0 8 3.58 8 8v25.16c0 4.4-3.6 8-8 8H461.15c-4.42 0-8-3.6-8-8z" stroke="#000" stroke-opacity="0" stroke-width="2" fill="#fff" fill-opacity="0"/><use xlink:href="#j" transform="matrix(1,0,0,1,457.1465527853429,70.99999999994924) translate(306.79024691358023 23.657777777777778)"/><use xlink:href="#k" transform="matrix(1,0,0,1,457.1465527853429,70.99999999994924) translate(370.1606172839506 23.657777777777778)"/><use xlink:href="#l" transform="matrix(1,0,0,1,457.1465527853429,70.99999999994924) translate(443.0001234567901 23.657777777777778)"/><path d="M729.63 106.8H1039M729.65 106.8h-1.02M1038.96 106.8h1.03" stroke="#a9afb8" stroke-width="2" fill="none"/><path d="M453.15 116.16c0-4.42 3.58-8 8-8h837.7c4.42 0 8 3.58 8 8V119c0 4.42-3.58 8-8 8h-837.7c-4.42 0-8-3.58-8-8z" stroke="#000" stroke-opacity="0" stroke-width="2" fill="#fff" fill-opacity="0"/><use xlink:href="#m" transform="matrix(1,0,0,1,457.1465527853434,112.15522395684805) translate(381.3983744855967 14.917037037037037)"/><use xlink:href="#n" transform="matrix(1,0,0,1,457.1465527853434,112.15522395684805) translate(424.65290123456793 14.917037037037037)"/><path d="M100 200h340v370H100z" stroke="#333" stroke-width="2" fill="#fff"/><path d="M100 237.6h340M100 446.9h340" stroke="#333" stroke-width="2" fill="none"/><use xlink:href="#o" transform="matrix(1,0,0,1,108,208) translate(142.025 14.6)"/><use xlink:href="#p" transform="matrix(1,0,0,1,112,245.6) translate(0 25.000000000000007)"/><use xlink:href="#q" transform="matrix(1,0,0,1,112,245.6) translate(10.95 25.000000000000007)"/><use xlink:href="#p" transform="matrix(1,0,0,1,112,245.6) translate(0 46.60000000000001)"/><use xlink:href="#r" transform="matrix(1,0,0,1,112,245.6) translate(10.95 46.60000000000001)"/><use xlink:href="#p" transform="matrix(1,0,0,1,112,245.6) translate(0 68.20000000000002)"/><use xlink:href="#s" transform="matrix(1,0,0,1,112,245.6) translate(10.95 68.20000000000002)"/><use xlink:href="#p" transform="matrix(1,0,0,1,112,245.6) translate(0 89.80000000000003)"/><use xlink:href="#t" transform="matrix(1,0,0,1,112,245.6) translate(10.95 89.80000000000003)"/><use xlink:href="#b" transform="matrix(1,0,0,1,112,245.6) translate(0 111.40000000000002)"/><use xlink:href="#u" transform="matrix(1,0,0,1,112,245.6) translate(15.5 111.40000000000002)"/><use xlink:href="#v" transform="matrix(1,0,0,1,112,245.6) translate(132.35000000000002 111.40000000000002)"/><use xlink:href="#b" transform="matrix(1,0,0,1,112,245.6) translate(0 133)"/><use xlink:href="#w" transform="matrix(1,0,0,1,112,245.6) translate(15.5 133)"/><use xlink:href="#x" transform="matrix(1,0,0,1,112,245.6) translate(123.4 133)"/><use xlink:href="#b" transform="matrix(1,0,0,1,112,245.6) translate(0 154.6)"/><use xlink:href="#y" transform="matrix(1,0,0,1,112,245.6) translate(15.5 154.6)"/><use xlink:href="#x" transform="matrix(1,0,0,1,112,245.6) translate(124.35000000000001 154.6)"/><use xlink:href="#b" transform="matrix(1,0,0,1,112,245.6) translate(0 176.20000000000002)"/><use xlink:href="#z" transform="matrix(1,0,0,1,112,245.6) translate(15.5 176.20000000000002)"/><use xlink:href="#A" transform="matrix(1,0,0,1,112,245.6) translate(131.4 176.20000000000002)"/><use xlink:href="#b" transform="matrix(1,0,0,1,112,454.9) translate(0 24.69999999999999)"/><use xlink:href="#B" transform="matrix(1,0,0,1,112,454.9) translate(15.5 24.69999999999999)"/><use xlink:href="#C" transform="matrix(1,0,0,1,112,454.9) translate(136.25 24.69999999999999)"/><use xlink:href="#D" transform="matrix(1,0,0,1,112,454.9) translate(0 46.29999999999999)"/><use xlink:href="#b" transform="matrix(1,0,0,1,112,454.9) translate(0 67.89999999999999)"/><use xlink:href="#E" transform="matrix(1,0,0,1,112,454.9) translate(15.5 67.89999999999999)"/><use xlink:href="#F" transform="matrix(1,0,0,1,112,454.9) translate(112.2 67.89999999999999)"/><use xlink:href="#b" transform="matrix(1,0,0,1,112,454.9) translate(0 89.5)"/><use xlink:href="#G" transform="matrix(1,0,0,1,112,454.9) translate(15.5 89.5)"/><path d="M1200 200h300v219h-300z" stroke="#333" stroke-width="2" fill="#fff"/><path d="M1200 237.6h300m-300 79.7h300" stroke="#333" stroke-width="2" fill="none"/><g><use xlink:href="#H" transform="matrix(1,0,0,1,1208,208) translate(97.05 14.6)"/></g><g><use xlink:href="#b" transform="matrix(1,0,0,1,1212,245.6) translate(0 24.799999999999997)"/><use xlink:href="#I" transform="matrix(1,0,0,1,1212,245.6) translate(15.5 24.799999999999997)"/><use xlink:href="#b" transform="matrix(1,0,0,1,1212,245.6) translate(0 46.4)"/><use xlink:href="#J" transform="matrix(1,0,0,1,1212,245.6) translate(15.5 46.4)"/><use xlink:href="#K" transform="matrix(1,0,0,1,1212,245.6) translate(117.4 46.4)"/></g><g><use xlink:href="#b" transform="matrix(1,0,0,1,1212,325.3) translate(0 25)"/><use xlink:href="#L" transform="matrix(1,0,0,1,1212,325.3) translate(15.5 25)"/><use xlink:href="#b" transform="matrix(1,0,0,1,1212,325.3) translate(0 46.6)"/><use xlink:href="#M" transform="matrix(1,0,0,1,1212,325.3) translate(15.5 46.6)"/><use xlink:href="#b" transform="matrix(1,0,0,1,1212,325.3) translate(0 68.2)"/><use xlink:href="#N" transform="matrix(1,0,0,1,1212,325.3) translate(15.5 68.2)"/></g><path d="M1200 595.67h300v197h-300z" stroke="#333" stroke-width="2" fill="#fff"/><path d="M1200 633.27h300m-300 58.1h300" stroke="#333" stroke-width="2" fill="none"/><g><use xlink:href="#O" transform="matrix(1,0,0,1,1208,603.6657894005797) translate(87.1 14.6)"/></g><g><use xlink:href="#b" transform="matrix(1,0,0,1,1212,699.3657894005797) translate(0 25)"/><use xlink:href="#P" transform="matrix(1,0,0,1,1212,699.3657894005797) translate(15.5 25)"/><use xlink:href="#b" transform="matrix(1,0,0,1,1212,699.3657894005797) translate(0 46.6)"/><use xlink:href="#Q" transform="matrix(1,0,0,1,1212,699.3657894005797) translate(15.5 46.6)"/><use xlink:href="#b" transform="matrix(1,0,0,1,1212,699.3657894005797) translate(0 68.2)"/><use xlink:href="#R" transform="matrix(1,0,0,1,1212,699.3657894005797) translate(15.5 68.2)"/></g><path d="M680 651.76h300v175H680z" stroke="#333" stroke-width="2" fill="#fff"/><path d="M680 689.36h300m-300 79.7h300" stroke="#333" stroke-width="2" fill="none"/><g><use xlink:href="#S" transform="matrix(1,0,0,1,688,659.7574066887173) translate(114.05 14.6)"/></g><g><use xlink:href="#b" transform="matrix(1,0,0,1,692,697.3574066887173) translate(0 24.799999999999997)"/><use xlink:href="#T" transform="matrix(1,0,0,1,692,697.3574066887173) translate(15.5 24.799999999999997)"/><use xlink:href="#b" transform="matrix(1,0,0,1,692,697.3574066887173) translate(0 46.4)"/><use xlink:href="#U" transform="matrix(1,0,0,1,692,697.3574066887173) translate(15.5 46.4)"/></g><path d="M100 680.62h300v219H100z" stroke="#333" stroke-width="2" fill="#fff"/><path d="M100 718.22h300m-300 101.3h300" stroke="#333" stroke-width="2" fill="none"/><g><use xlink:href="#V" transform="matrix(1,0,0,1,108,688.6223841944495) translate(126.725 14.6)"/></g><g><use xlink:href="#p" transform="matrix(1,0,0,1,112,726.2223841944495) translate(0 25)"/><use xlink:href="#W" transform="matrix(1,0,0,1,112,726.2223841944495) translate(10.95 25)"/><use xlink:href="#p" transform="matrix(1,0,0,1,112,726.2223841944495) translate(0 46.6)"/><use xlink:href="#X" transform="matrix(1,0,0,1,112,726.2223841944495) translate(10.95 46.6)"/><use xlink:href="#p" transform="matrix(1,0,0,1,112,726.2223841944495) translate(0 68.2)"/><use xlink:href="#Y" transform="matrix(1,0,0,1,112,726.2223841944495) translate(10.95 68.2)"/></g><g><use xlink:href="#b" transform="matrix(1,0,0,1,112,827.5223841944495) translate(0 24.799999999999997)"/><use xlink:href="#Z" transform="matrix(1,0,0,1,112,827.5223841944495) translate(15.5 24.799999999999997)"/><use xlink:href="#b" transform="matrix(1,0,0,1,112,827.5223841944495) translate(0 46.4)"/><use xlink:href="#aa" transform="matrix(1,0,0,1,112,827.5223841944495) translate(15.5 46.4)"/></g><path d="M402 739.26h276" stroke="#333" stroke-width="2" fill="none"/><path d="M402.03 740.26H401v-2h1.03zM679 740.26h-1.03v-2H679z" fill="#333"/><g><use xlink:href="#ab" transform="matrix(1,0,0,1,410.8317479191439,713.6574066887174) translate(0.005000000000000782 14.4)"/></g><path d="M278.9 678.62V572" stroke="#333" stroke-width="2" fill="none"/><path d="M279.9 679.62h-2v-1.02h2zM279.9 572.03h-2V571h2z" fill="#333"/><g><use xlink:href="#ab" transform="matrix(1,0,0,1,243.8894173602854,658.9336504161713) translate(0.005000000000000782 14.4)"/></g><path d="M442 409.34h106c6.63 0 12 5.37 12 12v274.38c0 6.63 5.37 12 12 12h106" stroke="#333" stroke-width="2" fill="none"/><path d="M442.03 410.34H441v-2h1.03zM679 708.72h-1.03v-2H679z" fill="#333"/><g><use xlink:href="#ab" transform="matrix(1,0,0,1,647.7378121284186,682.1193816884662) translate(0.005000000000000782 14.4)"/></g><path d="M982 283.4h216" stroke="#333" stroke-width="2" fill="none"/><path d="M982.03 284.4H981v-2h1.03zM1199 284.4h-1.03v-2h1.03z" fill="#333"/><g><use xlink:href="#ac" transform="matrix(1,0,0,1,1178.030759205944,257.7876337693222) translate(0.004999999999999893 14.4)"/></g><path d="M982 353.84h96c6.63 0 12 5.38 12 12v272.9c0 6.63 5.37 12 12 12h96" stroke="#333" stroke-width="2" fill="none"/><path d="M982.03 354.84H981v-2h1.03zM1199 651.74h-1.03v-2h1.03z" fill="#333"/><g><use xlink:href="#ac" transform="matrix(1,0,0,1,1181.0293134616693,625.141973840666) translate(0.004999999999999893 14.4)"/></g><path d="M402 871.15h1127c6.63 0 12-5.37 12-12V321.5c0-6.63-5.37-12-12-12h-27" stroke="#333" stroke-width="2" fill="none"/><path d="M402.03 872.15H401v-2h1.03zM1502.03 310.5H1501v-2h1.03z" fill="#333"/><defs><path fill="#333" d="M199 0l-22-63H83L61 0H9l90-248h61L250 0h-51zm-33-102l-36-108c-10 38-24 72-36 108h72" id="ad"/><path fill="#333" d="M135-194c53 0 70 44 70 98 0 56-19 98-73 100-31 1-45-17-59-34 3 33 2 69 2 105H25l-1-265h48c2 10 0 23 3 31 11-24 29-35 60-35zM114-30c33 0 39-31 40-66 0-38-9-64-40-64-56 0-55 130 0 130" id="ae"/><path fill="#333" d="M25 0v-261h50V0H25" id="af"/><path fill="#333" d="M25-224v-37h50v37H25zM25 0v-190h50V0H25" id="ag"/><path fill="#333" d="M190-63c-7 42-38 67-86 67-59 0-84-38-90-98-12-110 154-137 174-36l-49 2c-2-19-15-32-35-32-30 0-35 28-38 64-6 74 65 87 74 30" id="ah"/><path fill="#333" d="M133-34C117-15 103 5 69 4 32 3 11-16 11-54c-1-60 55-63 116-61 1-26-3-47-28-47-18 1-26 9-28 27l-52-2c7-38 36-58 82-57s74 22 75 68l1 82c-1 14 12 18 25 15v27c-30 8-71 5-69-32zm-48 3c29 0 43-24 42-57-32 0-66-3-65 30 0 17 8 27 23 27" id="ai"/><path fill="#333" d="M115-3C79 11 28 4 28-45v-112H4v-33h27l15-45h31v45h36v33H77v99c-1 23 16 31 38 25v30" id="aj"/><path fill="#333" d="M110-194c64 0 96 36 96 99 0 64-35 99-97 99-61 0-95-36-95-99 0-62 34-99 96-99zm-1 164c35 0 45-28 45-65 0-40-10-65-43-65-34 0-45 26-45 65 0 36 10 65 43 65" id="ak"/><path fill="#333" d="M135-194c87-1 58 113 63 194h-50c-7-57 23-157-34-157-59 0-34 97-39 157H25l-1-190h47c2 12-1 28 3 38 12-26 28-41 61-42" id="al"/><g id="a"><use transform="matrix(0.05,0,0,0.05,0,0)" xlink:href="#ad"/><use transform="matrix(0.05,0,0,0.05,12.950000000000001,0)" xlink:href="#ae"/><use transform="matrix(0.05,0,0,0.05,23.900000000000002,0)" xlink:href="#ae"/><use transform="matrix(0.05,0,0,0.05,34.85,0)" xlink:href="#af"/><use transform="matrix(0.05,0,0,0.05,39.85,0)" xlink:href="#ag"/><use transform="matrix(0.05,0,0,0.05,44.85,0)" xlink:href="#ah"/><use transform="matrix(0.05,0,0,0.05,54.85,0)" xlink:href="#ai"/><use transform="matrix(0.05,0,0,0.05,64.85,0)" xlink:href="#aj"/><use transform="matrix(0.05,0,0,0.05,70.8,0)" xlink:href="#ag"/><use transform="matrix(0.05,0,0,0.05,75.8,0)" xlink:href="#ak"/><use transform="matrix(0.05,0,0,0.05,86.75,0)" xlink:href="#al"/></g><path fill="#333" d="M118-107v75H92v-75H18v-26h74v-75h26v75h74v26h-74" id="am"/><use transform="matrix(0.05,0,0,0.05,0,0)" xlink:href="#am" id="b"/><path fill="#333" d="M135-143c-3-34-86-38-87 0 15 53 115 12 119 90S17 21 10-45l28-5c4 36 97 45 98 0-10-56-113-15-118-90-4-57 82-63 122-42 12 7 21 19 24 35" id="an"/><path fill="#333" d="M100-194c63 0 86 42 84 106H49c0 40 14 67 53 68 26 1 43-12 49-29l28 8c-11 28-37 45-77 45C44 4 14-33 15-96c1-61 26-98 85-98zm52 81c6-60-76-77-97-28-3 7-6 17-6 28h103" id="ao"/><path fill="#333" d="M141-36C126-15 110 5 73 4 37 3 15-17 15-53c-1-64 63-63 125-63 3-35-9-54-41-54-24 1-41 7-42 31l-33-3c5-37 33-52 76-52 45 0 72 20 72 64v82c-1 20 7 32 28 27v20c-31 9-61-2-59-35zM48-53c0 20 12 33 32 33 41-3 63-29 60-74-43 2-92-5-92 41" id="ap"/><path fill="#333" d="M114-163C36-179 61-72 57 0H25l-1-190h30c1 12-1 29 2 39 6-27 23-49 58-41v29" id="aq"/><path fill="#333" d="M96-169c-40 0-48 33-48 73s9 75 48 75c24 0 41-14 43-38l32 2c-6 37-31 61-74 61-59 0-76-41-82-99-10-93 101-131 147-64 4 7 5 14 7 22l-32 3c-4-21-16-35-41-35" id="ar"/><path fill="#333" d="M106-169C34-169 62-67 57 0H25v-261h32l-1 103c12-21 28-36 61-36 89 0 53 116 60 194h-32v-121c2-32-8-49-39-48" id="as"/><path fill="#333" d="M205 0l-28-72H64L36 0H1l101-248h38L239 0h-34zm-38-99l-47-123c-12 45-31 82-46 123h93" id="at"/><path fill="#333" d="M115-194c55 1 70 41 70 98S169 2 115 4C84 4 66-9 55-30l1 105H24l-1-265h31l2 30c10-21 28-34 59-34zm-8 174c40 0 45-34 45-75s-6-73-45-74c-42 0-51 32-51 76 0 43 10 73 51 73" id="au"/><path fill="#333" d="M24-231v-30h32v30H24zM24 0v-190h32V0H24" id="av"/><path fill="#333" d="M33-154v-36h34v36H33zM33 0v-36h34V0H33" id="aw"/><g id="c"><use transform="matrix(0.05,0,0,0.05,0,0)" xlink:href="#an"/><use transform="matrix(0.05,0,0,0.05,9,0)" xlink:href="#ao"/><use transform="matrix(0.05,0,0,0.05,19,0)" xlink:href="#ap"/><use transform="matrix(0.05,0,0,0.05,29,0)" xlink:href="#aq"/><use transform="matrix(0.05,0,0,0.05,34.95,0)" xlink:href="#ar"/><use transform="matrix(0.05,0,0,0.05,43.95,0)" xlink:href="#as"/><use transform="matrix(0.05,0,0,0.05,53.95,0)" xlink:href="#at"/><use transform="matrix(0.05,0,0,0.05,65.95,0)" xlink:href="#au"/><use transform="matrix(0.05,0,0,0.05,75.95,0)" xlink:href="#av"/><use transform="matrix(0.05,0,0,0.05,79.9,0)" xlink:href="#aw"/></g><path fill="#333" d="M185-189c-5-48-123-54-124 2 14 75 158 14 163 119 3 78-121 87-175 55-17-10-28-26-33-46l33-7c5 56 141 63 141-1 0-78-155-14-162-118-5-82 145-84 179-34 5 7 8 16 11 25" id="ax"/><path fill="#333" d="M30-248c87 1 191-15 191 75 0 78-77 80-158 76V0H30v-248zm33 125c57 0 124 11 124-50 0-59-68-47-124-48v98" id="ay"/><path fill="#333" d="M33 0v-248h34V0H33" id="az"/><g id="d"><use transform="matrix(0.05,0,0,0.05,0,0)" xlink:href="#ax"/><use transform="matrix(0.05,0,0,0.05,12,0)" xlink:href="#ao"/><use transform="matrix(0.05,0,0,0.05,22,0)" xlink:href="#ap"/><use transform="matrix(0.05,0,0,0.05,32,0)" xlink:href="#aq"/><use transform="matrix(0.05,0,0,0.05,37.95,0)" xlink:href="#ar"/><use transform="matrix(0.05,0,0,0.05,46.95,0)" xlink:href="#as"/><use transform="matrix(0.05,0,0,0.05,56.95,0)" xlink:href="#at"/><use transform="matrix(0.05,0,0,0.05,68.95,0)" xlink:href="#ay"/><use transform="matrix(0.05,0,0,0.05,80.95,0)" xlink:href="#az"/></g><path fill="#333" d="M85-194c31 0 48 13 60 33l-1-100h32l1 261h-30c-2-10 0-23-3-31C134-8 116 4 85 4 32 4 16-35 15-94c0-66 23-100 70-100zm9 24c-40 0-46 34-46 75 0 40 6 74 45 74 42 0 51-32 51-76 0-42-9-74-50-73" id="aA"/><path fill="#333" d="M59-47c-2 24 18 29 38 22v24C64 9 27 4 27-40v-127H5v-23h24l9-43h21v43h35v23H59v120" id="aB"/><path fill="#333" d="M115-194c53 0 69 39 70 98 0 66-23 100-70 100C84 3 66-7 56-30L54 0H23l1-261h32v101c10-23 28-34 59-34zm-8 174c40 0 45-34 45-75 0-40-5-75-45-74-42 0-51 32-51 76 0 43 10 73 51 73" id="aC"/><g id="e"><use transform="matrix(0.05,0,0,0.05,0,0)" xlink:href="#aA"/><use transform="matrix(0.05,0,0,0.05,10,0)" xlink:href="#ap"/><use transform="matrix(0.05,0,0,0.05,20,0)" xlink:href="#aB"/><use transform="matrix(0.05,0,0,0.05,25,0)" xlink:href="#ap"/><use transform="matrix(0.05,0,0,0.05,35,0)" xlink:href="#aC"/><use transform="matrix(0.05,0,0,0.05,45,0)" xlink:href="#ap"/><use transform="matrix(0.05,0,0,0.05,55,0)" xlink:href="#an"/><use transform="matrix(0.05,0,0,0.05,64,0)" xlink:href="#ao"/><use transform="matrix(0.05,0,0,0.05,74,0)" xlink:href="#at"/><use transform="matrix(0.05,0,0,0.05,86,0)" xlink:href="#au"/><use transform="matrix(0.05,0,0,0.05,96,0)" xlink:href="#av"/><use transform="matrix(0.05,0,0,0.05,99.95,0)" xlink:href="#aw"/></g><path fill="#333" d="M30-248c118-7 216 8 213 122C240-48 200 0 122 0H30v-248zM63-27c89 8 146-16 146-99s-60-101-146-95v194" id="aD"/><g id="f"><use transform="matrix(0.05,0,0,0.05,0,0)" xlink:href="#aD"/><use transform="matrix(0.05,0,0,0.05,12.950000000000001,0)" xlink:href="#ap"/><use transform="matrix(0.05,0,0,0.05,22.950000000000003,0)" xlink:href="#aB"/><use transform="matrix(0.05,0,0,0.05,27.950000000000003,0)" xlink:href="#ap"/><use transform="matrix(0.05,0,0,0.05,37.95,0)" xlink:href="#aC"/><use transform="matrix(0.05,0,0,0.05,47.95,0)" xlink:href="#ap"/><use transform="matrix(0.05,0,0,0.05,57.95,0)" xlink:href="#an"/><use transform="matrix(0.05,0,0,0.05,66.95,0)" xlink:href="#ao"/><use transform="matrix(0.05,0,0,0.05,76.95,0)" xlink:href="#at"/><use transform="matrix(0.05,0,0,0.05,88.95,0)" xlink:href="#ay"/><use transform="matrix(0.05,0,0,0.05,100.95,0)" xlink:href="#av"/></g><path fill="#333" d="M177-190C167-65 218 103 67 71c-23-6-38-20-44-43l32-5c15 47 100 32 89-28v-30C133-14 115 1 83 1 29 1 15-40 15-95c0-56 16-97 71-98 29-1 48 16 59 35 1-10 0-23 2-32h30zM94-22c36 0 50-32 50-73 0-42-14-75-50-75-39 0-46 34-46 75s6 73 46 73" id="aE"/><path fill="#333" d="M233-177c-1 41-23 64-60 70L243 0h-38l-65-103H63V0H30v-248c88 3 205-21 203 71zM63-129c60-2 137 13 137-47 0-61-80-42-137-45v92" id="aF"/><path fill="#333" d="M24 0v-261h32V0H24" id="aG"/><path fill="#333" d="M212-179c-10-28-35-45-73-45-59 0-87 40-87 99 0 60 29 101 89 101 43 0 62-24 78-52l27 14C228-24 195 4 139 4 59 4 22-46 18-125c-6-104 99-153 187-111 19 9 31 26 39 46" id="aH"/><path fill="#333" d="M100-194c62-1 85 37 85 99 1 63-27 99-86 99S16-35 15-95c0-66 28-99 85-99zM99-20c44 1 53-31 53-75 0-43-8-75-51-75s-53 32-53 75 10 74 51 75" id="aI"/><path fill="#333" d="M117-194c89-4 53 116 60 194h-32v-121c0-31-8-49-39-48C34-167 62-67 57 0H25l-1-190h30c1 10-1 24 2 32 11-22 29-35 61-36" id="aJ"/><path fill="#333" d="M87 75C49 33 22-17 22-94c0-76 28-126 65-167h31c-38 41-64 92-64 168S80 34 118 75H87" id="aK"/><path fill="#333" d="M33-261c38 41 65 92 65 168S71 34 33 75H2C39 34 66-17 66-93S39-220 2-261h31" id="aL"/><g id="g"><use transform="matrix(0.05,0,0,0.05,0,0)" xlink:href="#aE"/><use transform="matrix(0.05,0,0,0.05,10,0)" xlink:href="#ao"/><use transform="matrix(0.05,0,0,0.05,20,0)" xlink:href="#aB"/><use transform="matrix(0.05,0,0,0.05,25,0)" xlink:href="#aF"/><use transform="matrix(0.05,0,0,0.05,37.95,0)" xlink:href="#ao"/><use transform="matrix(0.05,0,0,0.05,47.95,0)" xlink:href="#aG"/><use transform="matrix(0.05,0,0,0.05,51.900000000000006,0)" xlink:href="#ap"/><use transform="matrix(0.05,0,0,0.05,61.900000000000006,0)" xlink:href="#aB"/><use transform="matrix(0.05,0,0,0.05,66.9,0)" xlink:href="#ao"/><use transform="matrix(0.05,0,0,0.05,76.9,0)" xlink:href="#aA"/><use transform="matrix(0.05,0,0,0.05,86.9,0)" xlink:href="#aH"/><use transform="matrix(0.05,0,0,0.05,99.85000000000001,0)" xlink:href="#aI"/><use transform="matrix(0.05,0,0,0.05,109.85000000000001,0)" xlink:href="#aJ"/><use transform="matrix(0.05,0,0,0.05,119.85000000000001,0)" xlink:href="#ar"/><use transform="matrix(0.05,0,0,0.05,128.85000000000002,0)" xlink:href="#ao"/><use transform="matrix(0.05,0,0,0.05,138.85000000000002,0)" xlink:href="#au"/><use transform="matrix(0.05,0,0,0.05,148.85000000000002,0)" xlink:href="#aB"/><use transform="matrix(0.05,0,0,0.05,153.85000000000002,0)" xlink:href="#an"/><use transform="matrix(0.05,0,0,0.05,162.85000000000002,0)" xlink:href="#aK"/><use transform="matrix(0.05,0,0,0.05,168.8,0)" xlink:href="#aL"/></g><path fill="#333" d="M84 4C-5 8 30-112 23-190h32v120c0 31 7 50 39 49 72-2 45-101 50-169h31l1 190h-30c-1-10 1-25-2-33-11 22-28 36-60 37" id="aM"/><g id="h"><use transform="matrix(0.05,0,0,0.05,0,0)" xlink:href="#aE"/><use transform="matrix(0.05,0,0,0.05,10,0)" xlink:href="#ao"/><use transform="matrix(0.05,0,0,0.05,20,0)" xlink:href="#aB"/><use transform="matrix(0.05,0,0,0.05,25,0)" xlink:href="#aH"/><use transform="matrix(0.05,0,0,0.05,37.95,0)" xlink:href="#aI"/><use transform="matrix(0.05,0,0,0.05,47.95,0)" xlink:href="#aI"/><use transform="matrix(0.05,0,0,0.05,57.95,0)" xlink:href="#ar"/><use transform="matrix(0.05,0,0,0.05,66.95,0)" xlink:href="#ar"/><use transform="matrix(0.05,0,0,0.05,75.95,0)" xlink:href="#aM"/><use transform="matrix(0.05,0,0,0.05,85.95,0)" xlink:href="#aq"/><use transform="matrix(0.05,0,0,0.05,91.9,0)" xlink:href="#ao"/><use transform="matrix(0.05,0,0,0.05,101.9,0)" xlink:href="#aA"/><use transform="matrix(0.05,0,0,0.05,111.9,0)" xlink:href="#aH"/><use transform="matrix(0.05,0,0,0.05,124.85000000000001,0)" xlink:href="#aI"/><use transform="matrix(0.05,0,0,0.05,134.85000000000002,0)" xlink:href="#aJ"/><use transform="matrix(0.05,0,0,0.05,144.85000000000002,0)" xlink:href="#ar"/><use transform="matrix(0.05,0,0,0.05,153.85000000000002,0)" xlink:href="#ao"/><use transform="matrix(0.05,0,0,0.05,163.85000000000002,0)" xlink:href="#au"/><use transform="matrix(0.05,0,0,0.05,173.85000000000002,0)" xlink:href="#aB"/><use transform="matrix(0.05,0,0,0.05,178.85000000000002,0)" xlink:href="#an"/><use transform="matrix(0.05,0,0,0.05,187.85000000000002,0)" xlink:href="#aK"/><use transform="matrix(0.05,0,0,0.05,193.8,0)" xlink:href="#aL"/></g><g id="i"><use transform="matrix(0.05,0,0,0.05,0,0)" xlink:href="#ar"/><use transform="matrix(0.05,0,0,0.05,9,0)" xlink:href="#aq"/><use transform="matrix(0.05,0,0,0.05,14.949999999999998,0)" xlink:href="#ao"/><use transform="matrix(0.05,0,0,0.05,24.95,0)" xlink:href="#ap"/><use transform="matrix(0.05,0,0,0.05,34.95,0)" xlink:href="#aB"/><use transform="matrix(0.05,0,0,0.05,39.95,0)" xlink:href="#ao"/><use transform="matrix(0.05,0,0,0.05,49.95,0)" xlink:href="#aH"/><use transform="matrix(0.05,0,0,0.05,62.900000000000006,0)" xlink:href="#aG"/><use transform="matrix(0.05,0,0,0.05,66.85000000000001,0)" xlink:href="#aM"/><use transform="matrix(0.05,0,0,0.05,76.85000000000001,0)" xlink:href="#an"/><use transform="matrix(0.05,0,0,0.05,85.85000000000001,0)" xlink:href="#aB"/><use transform="matrix(0.05,0,0,0.05,90.85000000000001,0)" xlink:href="#ao"/><use transform="matrix(0.05,0,0,0.05,100.85000000000001,0)" xlink:href="#aq"/><use transform="matrix(0.05,0,0,0.05,106.80000000000001,0)" xlink:href="#an"/><use transform="matrix(0.05,0,0,0.05,115.80000000000001,0)" xlink:href="#aK"/><use transform="matrix(0.05,0,0,0.05,121.75,0)" xlink:href="#aL"/></g><path fill="#a9afb8" d="M238-95c0 69-44 99-111 99C63 4 22-25 22-93v-155h51v151c-1 38 19 59 55 60 90 1 49-130 58-211h52v153" id="aN"/><path fill="#a9afb8" d="M230 0l2-204L168 0h-37L68-204 70 0H24v-248h70l56 185 57-185h69V0h-46" id="aO"/><path fill="#a9afb8" d="M24 0v-248h52v208h133V0H24" id="aP"/><g id="j"><use transform="matrix(0.0728395061728395,0,0,0.0728395061728395,0,0)" xlink:href="#aN"/><use transform="matrix(0.0728395061728395,0,0,0.0728395061728395,18.86543209876543,0)" xlink:href="#aO"/><use transform="matrix(0.0728395061728395,0,0,0.0728395061728395,40.644444444444446,0)" xlink:href="#aP"/></g><path fill="#a9afb8" d="M190-63c-7 42-38 67-86 67-59 0-84-38-90-98-12-110 154-137 174-36l-49 2c-2-19-15-32-35-32-30 0-35 28-38 64-6 74 65 87 74 30" id="aQ"/><path fill="#a9afb8" d="M25 0v-261h50V0H25" id="aR"/><path fill="#a9afb8" d="M133-34C117-15 103 5 69 4 32 3 11-16 11-54c-1-60 55-63 116-61 1-26-3-47-28-47-18 1-26 9-28 27l-52-2c7-38 36-58 82-57s74 22 75 68l1 82c-1 14 12 18 25 15v27c-30 8-71 5-69-32zm-48 3c29 0 43-24 42-57-32 0-66-3-65 30 0 17 8 27 23 27" id="aS"/><path fill="#a9afb8" d="M137-138c1-29-70-34-71-4 15 46 118 7 119 86 1 83-164 76-172 9l43-7c4 19 20 25 44 25 33 8 57-30 24-41C81-84 22-81 20-136c-2-80 154-74 161-7" id="aT"/><g id="k"><use transform="matrix(0.0728395061728395,0,0,0.0728395061728395,0,0)" xlink:href="#aQ"/><use transform="matrix(0.0728395061728395,0,0,0.0728395061728395,14.5679012345679,0)" xlink:href="#aR"/><use transform="matrix(0.0728395061728395,0,0,0.0728395061728395,21.85185185185185,0)" xlink:href="#aS"/><use transform="matrix(0.0728395061728395,0,0,0.0728395061728395,36.41975308641975,0)" xlink:href="#aT"/><use transform="matrix(0.0728395061728395,0,0,0.0728395061728395,50.98765432098765,0)" xlink:href="#aT"/></g><path fill="#a9afb8" d="M88-194c31-1 46 15 58 34l-1-101h50l1 261h-48c-2-10 0-23-3-31C134-8 116 4 84 4 32 4 16-41 15-95c0-56 19-97 73-99zm17 164c33 0 40-30 41-66 1-37-9-64-41-64s-38 30-39 65c0 43 13 65 39 65" id="aU"/><path fill="#a9afb8" d="M25-224v-37h50v37H25zM25 0v-190h50V0H25" id="aV"/><path fill="#a9afb8" d="M195-6C206 82 75 100 31 46c-4-6-6-13-8-21l49-6c3 16 16 24 34 25 40 0 42-37 40-79-11 22-30 35-61 35-53 0-70-43-70-97 0-56 18-96 73-97 30 0 46 14 59 34l2-30h47zm-90-29c32 0 41-27 41-63 0-35-9-62-40-62-32 0-39 29-40 63 0 36 9 62 39 62" id="aW"/><path fill="#a9afb8" d="M135-150c-39-12-60 13-60 57V0H25l-1-190h47c2 13-1 29 3 40 6-28 27-53 61-41v41" id="aX"/><path fill="#a9afb8" d="M220-157c-53 9-28 100-34 157h-49v-107c1-27-5-49-29-50C55-147 81-57 75 0H25l-1-190h47c2 12-1 28 3 38 10-53 101-56 108 0 13-22 24-43 59-42 82 1 51 116 57 194h-49v-107c-1-25-5-48-29-50" id="aY"/><g id="l"><use transform="matrix(0.0728395061728395,0,0,0.0728395061728395,0,0)" xlink:href="#aU"/><use transform="matrix(0.0728395061728395,0,0,0.0728395061728395,15.95185185185185,0)" xlink:href="#aV"/><use transform="matrix(0.0728395061728395,0,0,0.0728395061728395,23.235802469135802,0)" xlink:href="#aS"/><use transform="matrix(0.0728395061728395,0,0,0.0728395061728395,37.803703703703704,0)" xlink:href="#aW"/><use transform="matrix(0.0728395061728395,0,0,0.0728395061728395,53.75555555555555,0)" xlink:href="#aX"/><use transform="matrix(0.0728395061728395,0,0,0.0728395061728395,63.953086419753085,0)" xlink:href="#aS"/><use transform="matrix(0.0728395061728395,0,0,0.0728395061728395,78.52098765432099,0)" xlink:href="#aY"/></g><path fill="#a9afb8" d="M63-220v92h138v28H63V0H30v-248h175v28H63" id="aZ"/><path fill="#a9afb8" d="M141-36C126-15 110 5 73 4 37 3 15-17 15-53c-1-64 63-63 125-63 3-35-9-54-41-54-24 1-41 7-42 31l-33-3c5-37 33-52 76-52 45 0 72 20 72 64v82c-1 20 7 32 28 27v20c-31 9-61-2-59-35zM48-53c0 20 12 33 32 33 41-3 63-29 60-74-43 2-92-5-92 41" id="ba"/><path fill="#a9afb8" d="M114-163C36-179 61-72 57 0H25l-1-190h30c1 12-1 29 2 39 6-27 23-49 58-41v29" id="bb"/><path fill="#a9afb8" d="M84 4C-5 8 30-112 23-190h32v120c0 31 7 50 39 49 72-2 45-101 50-169h31l1 190h-30c-1-10 1-25-2-33-11 22-28 36-60 37" id="bc"/><path fill="#a9afb8" d="M143 0L79-87 56-68V0H24v-261h32v163l83-92h37l-77 82L181 0h-38" id="bd"/><g id="m"><use transform="matrix(0.04248971193415638,0,0,0.04248971193415638,0,0)" xlink:href="#aZ"/><use transform="matrix(0.04248971193415638,0,0,0.04248971193415638,9.305246913580246,0)" xlink:href="#ba"/><use transform="matrix(0.04248971193415638,0,0,0.04248971193415638,17.80318930041152,0)" xlink:href="#bb"/><use transform="matrix(0.04248971193415638,0,0,0.04248971193415638,22.85946502057613,0)" xlink:href="#bc"/><use transform="matrix(0.04248971193415638,0,0,0.04248971193415638,31.357407407407408,0)" xlink:href="#bd"/></g><path fill="#a9afb8" d="M197 0v-115H63V0H30v-248h33v105h134v-105h34V0h-34" id="be"/><path fill="#a9afb8" d="M135-143c-3-34-86-38-87 0 15 53 115 12 119 90S17 21 10-45l28-5c4 36 97 45 98 0-10-56-113-15-118-90-4-57 82-63 122-42 12 7 21 19 24 35" id="bf"/><path fill="#a9afb8" d="M24-231v-30h32v30H24zM24 0v-190h32V0H24" id="bg"/><path fill="#a9afb8" d="M96-169c-40 0-48 33-48 73s9 75 48 75c24 0 41-14 43-38l32 2c-6 37-31 61-74 61-59 0-76-41-82-99-10-93 101-131 147-64 4 7 5 14 7 22l-32 3c-4-21-16-35-41-35" id="bh"/><g id="n"><use transform="matrix(0.04248971193415638,0,0,0.04248971193415638,0,0)" xlink:href="#be"/><use transform="matrix(0.04248971193415638,0,0,0.04248971193415638,11.004835390946502,0)" xlink:href="#ba"/><use transform="matrix(0.04248971193415638,0,0,0.04248971193415638,19.502777777777776,0)" xlink:href="#bf"/><use transform="matrix(0.04248971193415638,0,0,0.04248971193415638,27.150925925925925,0)" xlink:href="#bg"/><use transform="matrix(0.04248971193415638,0,0,0.04248971193415638,30.50761316872428,0)" xlink:href="#bb"/><use transform="matrix(0.04248971193415638,0,0,0.04248971193415638,35.56388888888889,0)" xlink:href="#bh"/><use transform="matrix(0.04248971193415638,0,0,0.04248971193415638,43.212037037037035,0)" xlink:href="#bg"/></g><path fill="#333" d="M238-95c0 69-44 99-111 99C63 4 22-25 22-93v-155h51v151c-1 38 19 59 55 60 90 1 49-130 58-211h52v153" id="bi"/><path fill="#333" d="M137-138c1-29-70-34-71-4 15 46 118 7 119 86 1 83-164 76-172 9l43-7c4 19 20 25 44 25 33 8 57-30 24-41C81-84 22-81 20-136c-2-80 154-74 161-7" id="bj"/><path fill="#333" d="M185-48c-13 30-37 53-82 52C43 2 14-33 14-96s30-98 90-98c62 0 83 45 84 108H66c0 31 8 55 39 56 18 0 30-7 34-22zm-45-69c5-46-57-63-70-21-2 6-4 13-4 21h74" id="bk"/><path fill="#333" d="M135-150c-39-12-60 13-60 57V0H25l-1-190h47c2 13-1 29 3 40 6-28 27-53 61-41v41" id="bl"/><g id="o"><use transform="matrix(0.05,0,0,0.05,0,0)" xlink:href="#bi"/><use transform="matrix(0.05,0,0,0.05,12.950000000000001,0)" xlink:href="#bj"/><use transform="matrix(0.05,0,0,0.05,22.950000000000003,0)" xlink:href="#bk"/><use transform="matrix(0.05,0,0,0.05,32.95,0)" xlink:href="#bl"/></g><path fill="#333" d="M16-82v-28h88v28H16" id="bm"/><use transform="matrix(0.05,0,0,0.05,0,0)" xlink:href="#bm" id="p"/><g id="q"><use transform="matrix(0.05,0,0,0.05,0,0)" xlink:href="#av"/><use transform="matrix(0.05,0,0,0.05,3.95,0)" xlink:href="#aA"/><use transform="matrix(0.05,0,0,0.05,13.949999999999998,0)" xlink:href="#aw"/><use transform="matrix(0.05,0,0,0.05,18.95,0)" xlink:href="#av"/><use transform="matrix(0.05,0,0,0.05,22.9,0)" xlink:href="#aJ"/><use transform="matrix(0.05,0,0,0.05,32.9,0)" xlink:href="#aB"/></g><path fill="#333" d="M210-169c-67 3-38 105-44 169h-31v-121c0-29-5-50-35-48C34-165 62-65 56 0H25l-1-190h30c1 10-1 24 2 32 10-44 99-50 107 0 11-21 27-35 58-36 85-2 47 119 55 194h-31v-121c0-29-5-49-35-48" id="bn"/><g id="r"><use transform="matrix(0.05,0,0,0.05,0,0)" xlink:href="#aJ"/><use transform="matrix(0.05,0,0,0.05,10,0)" xlink:href="#ap"/><use transform="matrix(0.05,0,0,0.05,20,0)" xlink:href="#bn"/><use transform="matrix(0.05,0,0,0.05,34.95,0)" xlink:href="#ao"/><use transform="matrix(0.05,0,0,0.05,44.95,0)" xlink:href="#aw"/><use transform="matrix(0.05,0,0,0.05,49.95,0)" xlink:href="#an"/><use transform="matrix(0.05,0,0,0.05,58.95,0)" xlink:href="#aB"/><use transform="matrix(0.05,0,0,0.05,63.95,0)" xlink:href="#aq"/><use transform="matrix(0.05,0,0,0.05,69.9,0)" xlink:href="#av"/><use transform="matrix(0.05,0,0,0.05,73.85000000000001,0)" xlink:href="#aJ"/><use transform="matrix(0.05,0,0,0.05,83.85000000000001,0)" xlink:href="#aE"/></g><g id="s"><use transform="matrix(0.05,0,0,0.05,0,0)" xlink:href="#ao"/><use transform="matrix(0.05,0,0,0.05,10,0)" xlink:href="#bn"/><use transform="matrix(0.05,0,0,0.05,24.950000000000003,0)" xlink:href="#ap"/><use transform="matrix(0.05,0,0,0.05,34.95,0)" xlink:href="#av"/><use transform="matrix(0.05,0,0,0.05,38.900000000000006,0)" xlink:href="#aG"/><use transform="matrix(0.05,0,0,0.05,42.85000000000001,0)" xlink:href="#aw"/><use transform="matrix(0.05,0,0,0.05,47.85000000000001,0)" xlink:href="#an"/><use transform="matrix(0.05,0,0,0.05,56.85,0)" xlink:href="#aB"/><use transform="matrix(0.05,0,0,0.05,61.85,0)" xlink:href="#aq"/><use transform="matrix(0.05,0,0,0.05,67.80000000000001,0)" xlink:href="#av"/><use transform="matrix(0.05,0,0,0.05,71.75000000000001,0)" xlink:href="#aJ"/><use transform="matrix(0.05,0,0,0.05,81.75000000000001,0)" xlink:href="#aE"/></g><path fill="#333" d="M206 0h-36l-40-164L89 0H53L-1-190h32L70-26l43-164h34l41 164 42-164h31" id="bo"/><g id="t"><use transform="matrix(0.05,0,0,0.05,0,0)" xlink:href="#au"/><use transform="matrix(0.05,0,0,0.05,10,0)" xlink:href="#ap"/><use transform="matrix(0.05,0,0,0.05,20,0)" xlink:href="#an"/><use transform="matrix(0.05,0,0,0.05,29,0)" xlink:href="#an"/><use transform="matrix(0.05,0,0,0.05,38,0)" xlink:href="#bo"/><use transform="matrix(0.05,0,0,0.05,50.95,0)" xlink:href="#aI"/><use transform="matrix(0.05,0,0,0.05,60.95,0)" xlink:href="#aq"/><use transform="matrix(0.05,0,0,0.05,66.9,0)" xlink:href="#aA"/><use transform="matrix(0.05,0,0,0.05,76.9,0)" xlink:href="#aw"/><use transform="matrix(0.05,0,0,0.05,81.9,0)" xlink:href="#an"/><use transform="matrix(0.05,0,0,0.05,90.9,0)" xlink:href="#aB"/><use transform="matrix(0.05,0,0,0.05,95.9,0)" xlink:href="#aq"/><use transform="matrix(0.05,0,0,0.05,101.85000000000001,0)" xlink:href="#av"/><use transform="matrix(0.05,0,0,0.05,105.80000000000001,0)" xlink:href="#aJ"/><use transform="matrix(0.05,0,0,0.05,115.80000000000001,0)" xlink:href="#aE"/></g><path fill="#333" d="M108 0H70L1-190h34L89-25l56-165h34" id="bp"/><g id="u"><use transform="matrix(0.05,0,0,0.05,0,0)" xlink:href="#an"/><use transform="matrix(0.05,0,0,0.05,9,0)" xlink:href="#ap"/><use transform="matrix(0.05,0,0,0.05,19,0)" xlink:href="#bp"/><use transform="matrix(0.05,0,0,0.05,28,0)" xlink:href="#ao"/><use transform="matrix(0.05,0,0,0.05,38,0)" xlink:href="#aA"/><use transform="matrix(0.05,0,0,0.05,48,0)" xlink:href="#at"/><use transform="matrix(0.05,0,0,0.05,60,0)" xlink:href="#aq"/><use transform="matrix(0.05,0,0,0.05,65.95,0)" xlink:href="#aB"/><use transform="matrix(0.05,0,0,0.05,70.95,0)" xlink:href="#av"/><use transform="matrix(0.05,0,0,0.05,74.9,0)" xlink:href="#ar"/><use transform="matrix(0.05,0,0,0.05,83.9,0)" xlink:href="#aG"/><use transform="matrix(0.05,0,0,0.05,87.85000000000001,0)" xlink:href="#ao"/><use transform="matrix(0.05,0,0,0.05,97.85000000000001,0)" xlink:href="#an"/><use transform="matrix(0.05,0,0,0.05,106.85000000000001,0)" xlink:href="#aw"/></g><path fill="#333" d="M30 0v-248h33v221h125V0H30" id="bq"/><path fill="#333" d="M18-100v-36l175-74v27L42-118l151 64v27" id="br"/><path fill="#333" d="M18-27v-27l151-64-151-65v-27l175 74v36" id="bs"/><g id="v"><use transform="matrix(0.05,0,0,0.05,0,0)" xlink:href="#bq"/><use transform="matrix(0.05,0,0,0.05,10,0)" xlink:href="#av"/><use transform="matrix(0.05,0,0,0.05,13.949999999999998,0)" xlink:href="#an"/><use transform="matrix(0.05,0,0,0.05,22.95,0)" xlink:href="#aB"/><use transform="matrix(0.05,0,0,0.05,27.950000000000003,0)" xlink:href="#br"/><use transform="matrix(0.05,0,0,0.05,38.45,0)" xlink:href="#at"/><use transform="matrix(0.05,0,0,0.05,50.45,0)" xlink:href="#aq"/><use transform="matrix(0.05,0,0,0.05,56.400000000000006,0)" xlink:href="#aB"/><use transform="matrix(0.05,0,0,0.05,61.400000000000006,0)" xlink:href="#av"/><use transform="matrix(0.05,0,0,0.05,65.35000000000001,0)" xlink:href="#ar"/><use transform="matrix(0.05,0,0,0.05,74.35000000000001,0)" xlink:href="#aG"/><use transform="matrix(0.05,0,0,0.05,78.30000000000001,0)" xlink:href="#ao"/><use transform="matrix(0.05,0,0,0.05,88.30000000000001,0)" xlink:href="#bs"/></g><path fill="#333" d="M127-220V0H93v-220H8v-28h204v28h-85" id="bt"/><g id="w"><use transform="matrix(0.05,0,0,0.05,0,0)" xlink:href="#ar"/><use transform="matrix(0.05,0,0,0.05,9,0)" xlink:href="#aq"/><use transform="matrix(0.05,0,0,0.05,14.949999999999998,0)" xlink:href="#ao"/><use transform="matrix(0.05,0,0,0.05,24.95,0)" xlink:href="#ap"/><use transform="matrix(0.05,0,0,0.05,34.95,0)" xlink:href="#aB"/><use transform="matrix(0.05,0,0,0.05,39.95,0)" xlink:href="#ao"/><use transform="matrix(0.05,0,0,0.05,49.95,0)" xlink:href="#aA"/><use transform="matrix(0.05,0,0,0.05,59.95,0)" xlink:href="#bt"/><use transform="matrix(0.05,0,0,0.05,68.9,0)" xlink:href="#ap"/><use transform="matrix(0.05,0,0,0.05,78.9,0)" xlink:href="#aE"/><use transform="matrix(0.05,0,0,0.05,88.9,0)" xlink:href="#an"/><use transform="matrix(0.05,0,0,0.05,97.9,0)" xlink:href="#aw"/></g><g id="x"><use transform="matrix(0.05,0,0,0.05,0,0)" xlink:href="#bq"/><use transform="matrix(0.05,0,0,0.05,10,0)" xlink:href="#av"/><use transform="matrix(0.05,0,0,0.05,13.949999999999998,0)" xlink:href="#an"/><use transform="matrix(0.05,0,0,0.05,22.95,0)" xlink:href="#aB"/><use transform="matrix(0.05,0,0,0.05,27.950000000000003,0)" xlink:href="#br"/><use transform="matrix(0.05,0,0,0.05,38.45,0)" xlink:href="#bt"/><use transform="matrix(0.05,0,0,0.05,47.400000000000006,0)" xlink:href="#ap"/><use transform="matrix(0.05,0,0,0.05,57.400000000000006,0)" xlink:href="#aE"/><use transform="matrix(0.05,0,0,0.05,67.4,0)" xlink:href="#bs"/></g><g id="y"><use transform="matrix(0.05,0,0,0.05,0,0)" xlink:href="#au"/><use transform="matrix(0.05,0,0,0.05,10,0)" xlink:href="#aI"/><use transform="matrix(0.05,0,0,0.05,20,0)" xlink:href="#an"/><use transform="matrix(0.05,0,0,0.05,29,0)" xlink:href="#av"/><use transform="matrix(0.05,0,0,0.05,32.95,0)" xlink:href="#aB"/><use transform="matrix(0.05,0,0,0.05,37.95,0)" xlink:href="#av"/><use transform="matrix(0.05,0,0,0.05,41.900000000000006,0)" xlink:href="#bp"/><use transform="matrix(0.05,0,0,0.05,50.900000000000006,0)" xlink:href="#ao"/><use transform="matrix(0.05,0,0,0.05,60.900000000000006,0)" xlink:href="#bt"/><use transform="matrix(0.05,0,0,0.05,69.85000000000001,0)" xlink:href="#ap"/><use transform="matrix(0.05,0,0,0.05,79.85000000000001,0)" xlink:href="#aE"/><use transform="matrix(0.05,0,0,0.05,89.85000000000001,0)" xlink:href="#an"/><use transform="matrix(0.05,0,0,0.05,98.85000000000001,0)" xlink:href="#aw"/></g><g id="z"><use transform="matrix(0.05,0,0,0.05,0,0)" xlink:href="#aJ"/><use transform="matrix(0.05,0,0,0.05,10,0)" xlink:href="#ao"/><use transform="matrix(0.05,0,0,0.05,20,0)" xlink:href="#aE"/><use transform="matrix(0.05,0,0,0.05,30,0)" xlink:href="#ap"/><use transform="matrix(0.05,0,0,0.05,40,0)" xlink:href="#aB"/><use transform="matrix(0.05,0,0,0.05,45,0)" xlink:href="#av"/><use transform="matrix(0.05,0,0,0.05,48.95,0)" xlink:href="#bp"/><use transform="matrix(0.05,0,0,0.05,57.95,0)" xlink:href="#ao"/><use transform="matrix(0.05,0,0,0.05,67.95,0)" xlink:href="#bt"/><use transform="matrix(0.05,0,0,0.05,76.9,0)" xlink:href="#ap"/><use transform="matrix(0.05,0,0,0.05,86.9,0)" xlink:href="#aE"/><use transform="matrix(0.05,0,0,0.05,96.9,0)" xlink:href="#an"/><use transform="matrix(0.05,0,0,0.05,105.9,0)" xlink:href="#aw"/></g><g id="A"><use transform="matrix(0.05,0,0,0.05,0,0)" xlink:href="#bq"/><use transform="matrix(0.05,0,0,0.05,10,0)" xlink:href="#av"/><use transform="matrix(0.05,0,0,0.05,13.949999999999998,0)" xlink:href="#an"/><use transform="matrix(0.05,0,0,0.05,22.95,0)" xlink:href="#aB"/><use transform="matrix(0.05,0,0,0.05,27.950000000000003,0)" xlink:href="#br"/><use transform="matrix(0.05,0,0,0.05,38.45,0)" xlink:href="#bt"/><use transform="matrix(0.05,0,0,0.05,47.400000000000006,0)" xlink:href="#ap"/><use transform="matrix(0.05,0,0,0.05,57.400000000000006,0)" xlink:href="#aE"/><use transform="matrix(0.05,0,0,0.05,67.4,0)" xlink:href="#bs"/></g><path fill="#333" d="M68-38c1 34 0 65-14 84H32c9-13 17-26 17-46H33v-38h35" id="bu"/><g id="B"><use transform="matrix(0.05,0,0,0.05,0,0)" xlink:href="#aq"/><use transform="matrix(0.05,0,0,0.05,5.95,0)" xlink:href="#ao"/><use transform="matrix(0.05,0,0,0.05,15.949999999999998,0)" xlink:href="#aE"/><use transform="matrix(0.05,0,0,0.05,25.950000000000003,0)" xlink:href="#av"/><use transform="matrix(0.05,0,0,0.05,29.899999999999995,0)" xlink:href="#an"/><use transform="matrix(0.05,0,0,0.05,38.9,0)" xlink:href="#aB"/><use transform="matrix(0.05,0,0,0.05,43.9,0)" xlink:href="#ao"/><use transform="matrix(0.05,0,0,0.05,53.900000000000006,0)" xlink:href="#aq"/><use transform="matrix(0.05,0,0,0.05,59.85,0)" xlink:href="#aK"/><use transform="matrix(0.05,0,0,0.05,65.8,0)" xlink:href="#aJ"/><use transform="matrix(0.05,0,0,0.05,75.8,0)" xlink:href="#ap"/><use transform="matrix(0.05,0,0,0.05,85.8,0)" xlink:href="#bn"/><use transform="matrix(0.05,0,0,0.05,100.75,0)" xlink:href="#ao"/><use transform="matrix(0.05,0,0,0.05,110.75,0)" xlink:href="#bu"/></g><g id="C"><use transform="matrix(0.05,0,0,0.05,0,0)" xlink:href="#ao"/><use transform="matrix(0.05,0,0,0.05,10,0)" xlink:href="#bn"/><use transform="matrix(0.05,0,0,0.05,24.950000000000003,0)" xlink:href="#ap"/><use transform="matrix(0.05,0,0,0.05,34.95,0)" xlink:href="#av"/><use transform="matrix(0.05,0,0,0.05,38.900000000000006,0)" xlink:href="#aG"/><use transform="matrix(0.05,0,0,0.05,42.85000000000001,0)" xlink:href="#bu"/></g><g id="D"><use transform="matrix(0.05,0,0,0.05,0,0)" xlink:href="#au"/><use transform="matrix(0.05,0,0,0.05,10,0)" xlink:href="#ap"/><use transform="matrix(0.05,0,0,0.05,20,0)" xlink:href="#an"/><use transform="matrix(0.05,0,0,0.05,29,0)" xlink:href="#an"/><use transform="matrix(0.05,0,0,0.05,38,0)" xlink:href="#bo"/><use transform="matrix(0.05,0,0,0.05,50.95,0)" xlink:href="#aI"/><use transform="matrix(0.05,0,0,0.05,60.95,0)" xlink:href="#aq"/><use transform="matrix(0.05,0,0,0.05,66.9,0)" xlink:href="#aA"/><use transform="matrix(0.05,0,0,0.05,76.9,0)" xlink:href="#aL"/><use transform="matrix(0.05,0,0,0.05,82.85000000000001,0)" xlink:href="#aw"/><use transform="matrix(0.05,0,0,0.05,87.85000000000001,0)" xlink:href="#an"/><use transform="matrix(0.05,0,0,0.05,96.85000000000001,0)" xlink:href="#aB"/><use transform="matrix(0.05,0,0,0.05,101.85000000000001,0)" xlink:href="#aq"/><use transform="matrix(0.05,0,0,0.05,107.80000000000001,0)" xlink:href="#av"/><use transform="matrix(0.05,0,0,0.05,111.75,0)" xlink:href="#aJ"/><use transform="matrix(0.05,0,0,0.05,121.75,0)" xlink:href="#aE"/></g><g id="E"><use transform="matrix(0.05,0,0,0.05,0,0)" xlink:href="#aG"/><use transform="matrix(0.05,0,0,0.05,3.95,0)" xlink:href="#aI"/><use transform="matrix(0.05,0,0,0.05,13.949999999999998,0)" xlink:href="#aE"/><use transform="matrix(0.05,0,0,0.05,23.95,0)" xlink:href="#av"/><use transform="matrix(0.05,0,0,0.05,27.899999999999995,0)" xlink:href="#aJ"/><use transform="matrix(0.05,0,0,0.05,37.9,0)" xlink:href="#aK"/><use transform="matrix(0.05,0,0,0.05,43.85,0)" xlink:href="#ao"/><use transform="matrix(0.05,0,0,0.05,53.85,0)" xlink:href="#bn"/><use transform="matrix(0.05,0,0,0.05,68.8,0)" xlink:href="#ap"/><use transform="matrix(0.05,0,0,0.05,78.8,0)" xlink:href="#av"/><use transform="matrix(0.05,0,0,0.05,82.75,0)" xlink:href="#aG"/><use transform="matrix(0.05,0,0,0.05,86.7,0)" xlink:href="#bu"/></g><g id="F"><use transform="matrix(0.05,0,0,0.05,0,0)" xlink:href="#au"/><use transform="matrix(0.05,0,0,0.05,10,0)" xlink:href="#ap"/><use transform="matrix(0.05,0,0,0.05,20,0)" xlink:href="#an"/><use transform="matrix(0.05,0,0,0.05,29,0)" xlink:href="#an"/><use transform="matrix(0.05,0,0,0.05,38,0)" xlink:href="#bo"/><use transform="matrix(0.05,0,0,0.05,50.95,0)" xlink:href="#aI"/><use transform="matrix(0.05,0,0,0.05,60.95,0)" xlink:href="#aq"/><use transform="matrix(0.05,0,0,0.05,66.9,0)" xlink:href="#aA"/><use transform="matrix(0.05,0,0,0.05,76.9,0)" xlink:href="#aL"/></g><g id="G"><use transform="matrix(0.05,0,0,0.05,0,0)" xlink:href="#aG"/><use transform="matrix(0.05,0,0,0.05,3.95,0)" xlink:href="#aI"/><use transform="matrix(0.05,0,0,0.05,13.949999999999998,0)" xlink:href="#aE"/><use transform="matrix(0.05,0,0,0.05,23.95,0)" xlink:href="#aI"/><use transform="matrix(0.05,0,0,0.05,33.95,0)" xlink:href="#aM"/><use transform="matrix(0.05,0,0,0.05,43.95,0)" xlink:href="#aB"/><use transform="matrix(0.05,0,0,0.05,48.95,0)" xlink:href="#aK"/><use transform="matrix(0.05,0,0,0.05,54.900000000000006,0)" xlink:href="#aL"/></g><path fill="#333" d="M169-182c-1-43-94-46-97-3 18 66 151 10 154 114 3 95-165 93-204 36-6-8-10-19-12-30l50-8c3 46 112 56 116 5-17-69-150-10-154-114-4-87 153-88 188-35 5 8 8 18 10 28" id="bv"/><path fill="#333" d="M114-157C55-157 80-60 75 0H25v-261h50l-1 109c12-26 28-41 61-42 86-1 58 113 63 194h-50c-7-57 23-157-34-157" id="bw"/><path fill="#333" d="M24-248c93 1 206-16 204 79-1 75-69 88-152 82V0H24v-248zm52 121c47 0 100 7 100-41 0-47-54-39-100-39v80" id="bx"/><path fill="#333" d="M24 0v-248h52V0H24" id="by"/><g id="H"><use transform="matrix(0.05,0,0,0.05,0,0)" xlink:href="#bv"/><use transform="matrix(0.05,0,0,0.05,12,0)" xlink:href="#bk"/><use transform="matrix(0.05,0,0,0.05,22,0)" xlink:href="#ai"/><use transform="matrix(0.05,0,0,0.05,32,0)" xlink:href="#bl"/><use transform="matrix(0.05,0,0,0.05,39,0)" xlink:href="#ah"/><use transform="matrix(0.05,0,0,0.05,49,0)" xlink:href="#bw"/><use transform="matrix(0.05,0,0,0.05,59.95,0)" xlink:href="#ad"/><use transform="matrix(0.05,0,0,0.05,72.9,0)" xlink:href="#bx"/><use transform="matrix(0.05,0,0,0.05,84.9,0)" xlink:href="#by"/></g><path fill="#333" d="M143 0L79-87 56-68V0H24v-261h32v163l83-92h37l-77 82L181 0h-38" id="bz"/><path fill="#333" d="M179-190L93 31C79 59 56 82 12 73V49c39 6 53-20 64-50L1-190h34L92-34l54-156h33" id="bA"/><path fill="#333" d="M266 0h-40l-56-210L115 0H75L2-248h35L96-30l15-64 43-154h32l59 218 59-218h35" id="bB"/><g id="I"><use transform="matrix(0.05,0,0,0.05,0,0)" xlink:href="#bz"/><use transform="matrix(0.05,0,0,0.05,9,0)" xlink:href="#ao"/><use transform="matrix(0.05,0,0,0.05,19,0)" xlink:href="#bA"/><use transform="matrix(0.05,0,0,0.05,28,0)" xlink:href="#bB"/><use transform="matrix(0.05,0,0,0.05,44.599999999999994,0)" xlink:href="#aI"/><use transform="matrix(0.05,0,0,0.05,54.599999999999994,0)" xlink:href="#aq"/><use transform="matrix(0.05,0,0,0.05,60.54999999999999,0)" xlink:href="#aA"/><use transform="matrix(0.05,0,0,0.05,70.55,0)" xlink:href="#an"/><use transform="matrix(0.05,0,0,0.05,79.55,0)" xlink:href="#aw"/><use transform="matrix(0.05,0,0,0.05,84.55,0)" xlink:href="#an"/><use transform="matrix(0.05,0,0,0.05,93.55,0)" xlink:href="#aB"/><use transform="matrix(0.05,0,0,0.05,98.55,0)" xlink:href="#aq"/><use transform="matrix(0.05,0,0,0.05,104.5,0)" xlink:href="#av"/><use transform="matrix(0.05,0,0,0.05,108.45,0)" xlink:href="#aJ"/><use transform="matrix(0.05,0,0,0.05,118.45,0)" xlink:href="#aE"/></g><g id="J"><use transform="matrix(0.05,0,0,0.05,0,0)" xlink:href="#an"/><use transform="matrix(0.05,0,0,0.05,9,0)" xlink:href="#ao"/><use transform="matrix(0.05,0,0,0.05,19,0)" xlink:href="#ap"/><use transform="matrix(0.05,0,0,0.05,29,0)" xlink:href="#aq"/><use transform="matrix(0.05,0,0,0.05,34.95,0)" xlink:href="#ar"/><use transform="matrix(0.05,0,0,0.05,43.95,0)" xlink:href="#as"/><use transform="matrix(0.05,0,0,0.05,53.95,0)" xlink:href="#bt"/><use transform="matrix(0.05,0,0,0.05,62.900000000000006,0)" xlink:href="#ap"/><use transform="matrix(0.05,0,0,0.05,72.9,0)" xlink:href="#aE"/><use transform="matrix(0.05,0,0,0.05,82.9,0)" xlink:href="#an"/><use transform="matrix(0.05,0,0,0.05,91.9,0)" xlink:href="#aw"/></g><g id="K"><use transform="matrix(0.05,0,0,0.05,0,0)" xlink:href="#bt"/><use transform="matrix(0.05,0,0,0.05,8.950000000000001,0)" xlink:href="#ap"/><use transform="matrix(0.05,0,0,0.05,18.950000000000003,0)" xlink:href="#aE"/></g><path fill="#333" d="M24-231v-30h32v30H24zM-9 49c24 4 33-6 33-30v-209h32V24c2 40-23 58-65 49V49" id="bC"/><g id="L"><use transform="matrix(0.05,0,0,0.05,0,0)" xlink:href="#an"/><use transform="matrix(0.05,0,0,0.05,9,0)" xlink:href="#ao"/><use transform="matrix(0.05,0,0,0.05,19,0)" xlink:href="#ap"/><use transform="matrix(0.05,0,0,0.05,29,0)" xlink:href="#aq"/><use transform="matrix(0.05,0,0,0.05,34.95,0)" xlink:href="#ar"/><use transform="matrix(0.05,0,0,0.05,43.95,0)" xlink:href="#as"/><use transform="matrix(0.05,0,0,0.05,53.95,0)" xlink:href="#aK"/><use transform="matrix(0.05,0,0,0.05,59.900000000000006,0)" xlink:href="#bz"/><use transform="matrix(0.05,0,0,0.05,68.9,0)" xlink:href="#ao"/><use transform="matrix(0.05,0,0,0.05,78.9,0)" xlink:href="#bA"/><use transform="matrix(0.05,0,0,0.05,87.9,0)" xlink:href="#bB"/><use transform="matrix(0.05,0,0,0.05,104.5,0)" xlink:href="#aI"/><use transform="matrix(0.05,0,0,0.05,114.5,0)" xlink:href="#aq"/><use transform="matrix(0.05,0,0,0.05,120.45,0)" xlink:href="#aA"/><use transform="matrix(0.05,0,0,0.05,130.45000000000002,0)" xlink:href="#an"/><use transform="matrix(0.05,0,0,0.05,139.45000000000002,0)" xlink:href="#aL"/><use transform="matrix(0.05,0,0,0.05,145.4,0)" xlink:href="#aw"/><use transform="matrix(0.05,0,0,0.05,150.4,0)" xlink:href="#bq"/><use transform="matrix(0.05,0,0,0.05,160.4,0)" xlink:href="#av"/><use transform="matrix(0.05,0,0,0.05,164.35,0)" xlink:href="#an"/><use transform="matrix(0.05,0,0,0.05,173.35,0)" xlink:href="#aB"/><use transform="matrix(0.05,0,0,0.05,178.35,0)" xlink:href="#br"/><use transform="matrix(0.05,0,0,0.05,188.85,0)" xlink:href="#aI"/><use transform="matrix(0.05,0,0,0.05,198.85,0)" xlink:href="#aC"/><use transform="matrix(0.05,0,0,0.05,208.85000000000002,0)" xlink:href="#bC"/><use transform="matrix(0.05,0,0,0.05,212.79999999999995,0)" xlink:href="#ao"/><use transform="matrix(0.05,0,0,0.05,222.79999999999995,0)" xlink:href="#ar"/><use transform="matrix(0.05,0,0,0.05,231.79999999999995,0)" xlink:href="#aB"/><use transform="matrix(0.05,0,0,0.05,236.79999999999995,0)" xlink:href="#bs"/></g><path fill="#333" d="M145-31C134-9 116 4 85 4 32 4 16-35 15-94c0-59 17-99 70-100 32-1 48 14 60 33 0-11-1-24 2-32h30l-1 268h-32zM93-21c41 0 51-33 51-76s-8-73-50-73c-40 0-46 35-46 75s5 74 45 74" id="bD"/><g id="M"><use transform="matrix(0.05,0,0,0.05,0,0)" xlink:href="#an"/><use transform="matrix(0.05,0,0,0.05,9,0)" xlink:href="#au"/><use transform="matrix(0.05,0,0,0.05,19,0)" xlink:href="#ap"/><use transform="matrix(0.05,0,0,0.05,29,0)" xlink:href="#aq"/><use transform="matrix(0.05,0,0,0.05,34.95,0)" xlink:href="#bD"/><use transform="matrix(0.05,0,0,0.05,44.95,0)" xlink:href="#aG"/><use transform="matrix(0.05,0,0,0.05,48.900000000000006,0)" xlink:href="#ax"/><use transform="matrix(0.05,0,0,0.05,60.900000000000006,0)" xlink:href="#ao"/><use transform="matrix(0.05,0,0,0.05,70.9,0)" xlink:href="#ap"/><use transform="matrix(0.05,0,0,0.05,80.9,0)" xlink:href="#aq"/><use transform="matrix(0.05,0,0,0.05,86.85000000000001,0)" xlink:href="#ar"/><use transform="matrix(0.05,0,0,0.05,95.85000000000001,0)" xlink:href="#as"/><use transform="matrix(0.05,0,0,0.05,105.85000000000001,0)" xlink:href="#aK"/><use transform="matrix(0.05,0,0,0.05,111.80000000000001,0)" xlink:href="#bz"/><use transform="matrix(0.05,0,0,0.05,120.80000000000001,0)" xlink:href="#ao"/><use transform="matrix(0.05,0,0,0.05,130.8,0)" xlink:href="#bA"/><use transform="matrix(0.05,0,0,0.05,139.8,0)" xlink:href="#bB"/><use transform="matrix(0.05,0,0,0.05,156.4,0)" xlink:href="#aI"/><use transform="matrix(0.05,0,0,0.05,166.4,0)" xlink:href="#aq"/><use transform="matrix(0.05,0,0,0.05,172.35,0)" xlink:href="#aA"/><use transform="matrix(0.05,0,0,0.05,182.35,0)" xlink:href="#an"/><use transform="matrix(0.05,0,0,0.05,191.35,0)" xlink:href="#aL"/></g><g id="N"><use transform="matrix(0.05,0,0,0.05,0,0)" xlink:href="#aB"/><use transform="matrix(0.05,0,0,0.05,5,0)" xlink:href="#ap"/><use transform="matrix(0.05,0,0,0.05,15,0)" xlink:href="#aE"/><use transform="matrix(0.05,0,0,0.05,25,0)" xlink:href="#ax"/><use transform="matrix(0.05,0,0,0.05,37,0)" xlink:href="#ao"/><use transform="matrix(0.05,0,0,0.05,47,0)" xlink:href="#ap"/><use transform="matrix(0.05,0,0,0.05,57,0)" xlink:href="#aq"/><use transform="matrix(0.05,0,0,0.05,62.95,0)" xlink:href="#ar"/><use transform="matrix(0.05,0,0,0.05,71.95,0)" xlink:href="#as"/><use transform="matrix(0.05,0,0,0.05,81.95,0)" xlink:href="#aK"/><use transform="matrix(0.05,0,0,0.05,87.9,0)" xlink:href="#aL"/></g><path fill="#333" d="M24-248c120-7 223 5 221 122C244-46 201 0 124 0H24v-248zM76-40c74 7 117-18 117-86 0-67-45-88-117-82v168" id="bE"/><path fill="#333" d="M135-194c52 0 70 43 70 98 0 56-19 99-73 100-30 1-46-15-58-35L72 0H24l1-261h50v104c11-23 29-37 60-37zM114-30c31 0 40-27 40-66 0-37-7-63-39-63s-41 28-41 65c0 36 8 64 40 64" id="bF"/><g id="O"><use transform="matrix(0.05,0,0,0.05,0,0)" xlink:href="#bE"/><use transform="matrix(0.05,0,0,0.05,12.950000000000001,0)" xlink:href="#ai"/><use transform="matrix(0.05,0,0,0.05,22.950000000000003,0)" xlink:href="#aj"/><use transform="matrix(0.05,0,0,0.05,28.900000000000002,0)" xlink:href="#ai"/><use transform="matrix(0.05,0,0,0.05,38.900000000000006,0)" xlink:href="#bF"/><use transform="matrix(0.05,0,0,0.05,49.85000000000001,0)" xlink:href="#ai"/><use transform="matrix(0.05,0,0,0.05,59.85,0)" xlink:href="#bj"/><use transform="matrix(0.05,0,0,0.05,69.85000000000001,0)" xlink:href="#bk"/><use transform="matrix(0.05,0,0,0.05,79.85000000000001,0)" xlink:href="#ad"/><use transform="matrix(0.05,0,0,0.05,92.80000000000001,0)" xlink:href="#bx"/><use transform="matrix(0.05,0,0,0.05,104.80000000000001,0)" xlink:href="#by"/></g><g id="P"><use transform="matrix(0.05,0,0,0.05,0,0)" xlink:href="#an"/><use transform="matrix(0.05,0,0,0.05,9,0)" xlink:href="#ap"/><use transform="matrix(0.05,0,0,0.05,19,0)" xlink:href="#bp"/><use transform="matrix(0.05,0,0,0.05,28,0)" xlink:href="#ao"/><use transform="matrix(0.05,0,0,0.05,38,0)" xlink:href="#aK"/><use transform="matrix(0.05,0,0,0.05,43.95,0)" xlink:href="#au"/><use transform="matrix(0.05,0,0,0.05,53.95,0)" xlink:href="#ap"/><use transform="matrix(0.05,0,0,0.05,63.95,0)" xlink:href="#aq"/><use transform="matrix(0.05,0,0,0.05,69.9,0)" xlink:href="#ap"/><use transform="matrix(0.05,0,0,0.05,79.9,0)" xlink:href="#bn"/><use transform="matrix(0.05,0,0,0.05,94.85000000000001,0)" xlink:href="#an"/><use transform="matrix(0.05,0,0,0.05,103.85000000000001,0)" xlink:href="#aL"/></g><g id="Q"><use transform="matrix(0.05,0,0,0.05,0,0)" xlink:href="#aM"/><use transform="matrix(0.05,0,0,0.05,10,0)" xlink:href="#au"/><use transform="matrix(0.05,0,0,0.05,20,0)" xlink:href="#aA"/><use transform="matrix(0.05,0,0,0.05,30,0)" xlink:href="#ap"/><use transform="matrix(0.05,0,0,0.05,40,0)" xlink:href="#aB"/><use transform="matrix(0.05,0,0,0.05,45,0)" xlink:href="#ao"/><use transform="matrix(0.05,0,0,0.05,55,0)" xlink:href="#aK"/><use transform="matrix(0.05,0,0,0.05,60.95,0)" xlink:href="#au"/><use transform="matrix(0.05,0,0,0.05,70.95,0)" xlink:href="#ap"/><use transform="matrix(0.05,0,0,0.05,80.95,0)" xlink:href="#aq"/><use transform="matrix(0.05,0,0,0.05,86.9,0)" xlink:href="#ap"/><use transform="matrix(0.05,0,0,0.05,96.9,0)" xlink:href="#bn"/><use transform="matrix(0.05,0,0,0.05,111.85000000000001,0)" xlink:href="#an"/><use transform="matrix(0.05,0,0,0.05,120.85000000000001,0)" xlink:href="#aL"/></g><g id="R"><use transform="matrix(0.05,0,0,0.05,0,0)" xlink:href="#aA"/><use transform="matrix(0.05,0,0,0.05,10,0)" xlink:href="#ao"/><use transform="matrix(0.05,0,0,0.05,20,0)" xlink:href="#aG"/><use transform="matrix(0.05,0,0,0.05,23.95,0)" xlink:href="#ao"/><use transform="matrix(0.05,0,0,0.05,33.95,0)" xlink:href="#aB"/><use transform="matrix(0.05,0,0,0.05,38.95,0)" xlink:href="#ao"/><use transform="matrix(0.05,0,0,0.05,48.95,0)" xlink:href="#aK"/><use transform="matrix(0.05,0,0,0.05,54.900000000000006,0)" xlink:href="#au"/><use transform="matrix(0.05,0,0,0.05,64.9,0)" xlink:href="#ap"/><use transform="matrix(0.05,0,0,0.05,74.9,0)" xlink:href="#aq"/><use transform="matrix(0.05,0,0,0.05,80.85000000000001,0)" xlink:href="#ap"/><use transform="matrix(0.05,0,0,0.05,90.85000000000001,0)" xlink:href="#bn"/><use transform="matrix(0.05,0,0,0.05,105.80000000000001,0)" xlink:href="#an"/><use transform="matrix(0.05,0,0,0.05,114.80000000000001,0)" xlink:href="#aL"/></g><g id="S"><use transform="matrix(0.05,0,0,0.05,0,0)" xlink:href="#ad"/><use transform="matrix(0.05,0,0,0.05,12.950000000000001,0)" xlink:href="#bl"/><use transform="matrix(0.05,0,0,0.05,19.950000000000003,0)" xlink:href="#aj"/><use transform="matrix(0.05,0,0,0.05,25.900000000000002,0)" xlink:href="#ag"/><use transform="matrix(0.05,0,0,0.05,30.900000000000002,0)" xlink:href="#ah"/><use transform="matrix(0.05,0,0,0.05,40.900000000000006,0)" xlink:href="#af"/><use transform="matrix(0.05,0,0,0.05,45.900000000000006,0)" xlink:href="#bk"/></g><g id="T"><use transform="matrix(0.05,0,0,0.05,0,0)" xlink:href="#ap"/><use transform="matrix(0.05,0,0,0.05,10,0)" xlink:href="#aq"/><use transform="matrix(0.05,0,0,0.05,15.949999999999998,0)" xlink:href="#aB"/><use transform="matrix(0.05,0,0,0.05,20.95,0)" xlink:href="#av"/><use transform="matrix(0.05,0,0,0.05,24.9,0)" xlink:href="#ar"/><use transform="matrix(0.05,0,0,0.05,33.9,0)" xlink:href="#aG"/><use transform="matrix(0.05,0,0,0.05,37.85,0)" xlink:href="#ao"/><use transform="matrix(0.05,0,0,0.05,47.85,0)" xlink:href="#az"/><use transform="matrix(0.05,0,0,0.05,52.85,0)" xlink:href="#aA"/><use transform="matrix(0.05,0,0,0.05,62.85,0)" xlink:href="#aw"/><use transform="matrix(0.05,0,0,0.05,67.85,0)" xlink:href="#av"/><use transform="matrix(0.05,0,0,0.05,71.8,0)" xlink:href="#aJ"/><use transform="matrix(0.05,0,0,0.05,81.8,0)" xlink:href="#aB"/></g><g id="U"><use transform="matrix(0.05,0,0,0.05,0,0)" xlink:href="#aB"/><use transform="matrix(0.05,0,0,0.05,5,0)" xlink:href="#ap"/><use transform="matrix(0.05,0,0,0.05,15,0)" xlink:href="#aE"/><use transform="matrix(0.05,0,0,0.05,25,0)" xlink:href="#an"/><use transform="matrix(0.05,0,0,0.05,34,0)" xlink:href="#aw"/><use transform="matrix(0.05,0,0,0.05,39,0)" xlink:href="#bq"/><use transform="matrix(0.05,0,0,0.05,49,0)" xlink:href="#av"/><use transform="matrix(0.05,0,0,0.05,52.95,0)" xlink:href="#an"/><use transform="matrix(0.05,0,0,0.05,61.95,0)" xlink:href="#aB"/><use transform="matrix(0.05,0,0,0.05,66.95,0)" xlink:href="#br"/><use transform="matrix(0.05,0,0,0.05,77.45,0)" xlink:href="#bt"/><use transform="matrix(0.05,0,0,0.05,86.4,0)" xlink:href="#ap"/><use transform="matrix(0.05,0,0,0.05,96.4,0)" xlink:href="#aE"/><use transform="matrix(0.05,0,0,0.05,106.4,0)" xlink:href="#bs"/></g><path fill="#333" d="M136-208V0H84v-208H4v-40h212v40h-80" id="bG"/><path fill="#333" d="M195-6C206 82 75 100 31 46c-4-6-6-13-8-21l49-6c3 16 16 24 34 25 40 0 42-37 40-79-11 22-30 35-61 35-53 0-70-43-70-97 0-56 18-96 73-97 30 0 46 14 59 34l2-30h47zm-90-29c32 0 41-27 41-63 0-35-9-62-40-62-32 0-39 29-40 63 0 36 9 62 39 62" id="bH"/><g id="V"><use transform="matrix(0.05,0,0,0.05,0,0)" xlink:href="#bG"/><use transform="matrix(0.05,0,0,0.05,9.600000000000001,0)" xlink:href="#ai"/><use transform="matrix(0.05,0,0,0.05,19.6,0)" xlink:href="#bH"/></g><g id="W"><use transform="matrix(0.05,0,0,0.05,0,0)" xlink:href="#aB"/><use transform="matrix(0.05,0,0,0.05,5,0)" xlink:href="#ap"/><use transform="matrix(0.05,0,0,0.05,15,0)" xlink:href="#aE"/><use transform="matrix(0.05,0,0,0.05,25,0)" xlink:href="#az"/><use transform="matrix(0.05,0,0,0.05,30,0)" xlink:href="#aA"/><use transform="matrix(0.05,0,0,0.05,40,0)" xlink:href="#aw"/><use transform="matrix(0.05,0,0,0.05,45,0)" xlink:href="#av"/><use transform="matrix(0.05,0,0,0.05,48.95,0)" xlink:href="#aJ"/><use transform="matrix(0.05,0,0,0.05,58.95,0)" xlink:href="#aB"/></g><g id="X"><use transform="matrix(0.05,0,0,0.05,0,0)" xlink:href="#ar"/><use transform="matrix(0.05,0,0,0.05,9,0)" xlink:href="#aq"/><use transform="matrix(0.05,0,0,0.05,14.949999999999998,0)" xlink:href="#ao"/><use transform="matrix(0.05,0,0,0.05,24.95,0)" xlink:href="#ap"/><use transform="matrix(0.05,0,0,0.05,34.95,0)" xlink:href="#aB"/><use transform="matrix(0.05,0,0,0.05,39.95,0)" xlink:href="#aI"/><use transform="matrix(0.05,0,0,0.05,49.95,0)" xlink:href="#aq"/><use transform="matrix(0.05,0,0,0.05,55.900000000000006,0)" xlink:href="#az"/><use transform="matrix(0.05,0,0,0.05,60.900000000000006,0)" xlink:href="#aA"/><use transform="matrix(0.05,0,0,0.05,70.9,0)" xlink:href="#aw"/><use transform="matrix(0.05,0,0,0.05,75.9,0)" xlink:href="#av"/><use transform="matrix(0.05,0,0,0.05,79.85000000000001,0)" xlink:href="#aJ"/><use transform="matrix(0.05,0,0,0.05,89.85000000000001,0)" xlink:href="#aB"/></g><g id="Y"><use transform="matrix(0.05,0,0,0.05,0,0)" xlink:href="#aq"/><use transform="matrix(0.05,0,0,0.05,5.95,0)" xlink:href="#ap"/><use transform="matrix(0.05,0,0,0.05,15.949999999999998,0)" xlink:href="#aJ"/><use transform="matrix(0.05,0,0,0.05,25.950000000000003,0)" xlink:href="#bz"/><use transform="matrix(0.05,0,0,0.05,34.95,0)" xlink:href="#an"/><use transform="matrix(0.05,0,0,0.05,43.95,0)" xlink:href="#aw"/><use transform="matrix(0.05,0,0,0.05,48.95,0)" xlink:href="#av"/><use transform="matrix(0.05,0,0,0.05,52.900000000000006,0)" xlink:href="#aJ"/><use transform="matrix(0.05,0,0,0.05,62.900000000000006,0)" xlink:href="#aB"/></g><g id="Z"><use transform="matrix(0.05,0,0,0.05,0,0)" xlink:href="#av"/><use transform="matrix(0.05,0,0,0.05,3.95,0)" xlink:href="#aJ"/><use transform="matrix(0.05,0,0,0.05,13.949999999999998,0)" xlink:href="#ar"/><use transform="matrix(0.05,0,0,0.05,22.95,0)" xlink:href="#aq"/><use transform="matrix(0.05,0,0,0.05,28.899999999999995,0)" xlink:href="#ao"/><use transform="matrix(0.05,0,0,0.05,38.9,0)" xlink:href="#ap"/><use transform="matrix(0.05,0,0,0.05,48.9,0)" xlink:href="#an"/><use transform="matrix(0.05,0,0,0.05,57.900000000000006,0)" xlink:href="#ao"/><use transform="matrix(0.05,0,0,0.05,67.9,0)" xlink:href="#aF"/><use transform="matrix(0.05,0,0,0.05,80.85000000000001,0)" xlink:href="#ap"/><use transform="matrix(0.05,0,0,0.05,90.85000000000001,0)" xlink:href="#aJ"/><use transform="matrix(0.05,0,0,0.05,100.85000000000001,0)" xlink:href="#bz"/><use transform="matrix(0.05,0,0,0.05,109.85000000000001,0)" xlink:href="#aK"/><use transform="matrix(0.05,0,0,0.05,115.80000000000001,0)" xlink:href="#aL"/></g><g id="aa"><use transform="matrix(0.05,0,0,0.05,0,0)" xlink:href="#aA"/><use transform="matrix(0.05,0,0,0.05,10,0)" xlink:href="#ao"/><use transform="matrix(0.05,0,0,0.05,20,0)" xlink:href="#ar"/><use transform="matrix(0.05,0,0,0.05,29,0)" xlink:href="#aq"/><use transform="matrix(0.05,0,0,0.05,34.95,0)" xlink:href="#ao"/><use transform="matrix(0.05,0,0,0.05,44.95,0)" xlink:href="#ap"/><use transform="matrix(0.05,0,0,0.05,54.95,0)" xlink:href="#an"/><use transform="matrix(0.05,0,0,0.05,63.95,0)" xlink:href="#ao"/><use transform="matrix(0.05,0,0,0.05,73.95,0)" xlink:href="#aF"/><use transform="matrix(0.05,0,0,0.05,86.9,0)" xlink:href="#ap"/><use transform="matrix(0.05,0,0,0.05,96.9,0)" xlink:href="#aJ"/><use transform="matrix(0.05,0,0,0.05,106.9,0)" xlink:href="#bz"/><use transform="matrix(0.05,0,0,0.05,115.9,0)" xlink:href="#aK"/><use transform="matrix(0.05,0,0,0.05,121.85000000000001,0)" xlink:href="#aL"/></g><path fill="#333" d="M101-251c68 0 85 55 85 127S166 4 100 4C33 4 14-52 14-124c0-73 17-127 87-127zm-1 229c47 0 54-49 54-102s-4-102-53-102c-51 0-55 48-55 102 0 53 5 102 54 102" id="bI"/><path fill="#333" d="M33 0v-38h34V0H33" id="bJ"/><path fill="#333" d="M80-196l47-18 7 23-49 13 32 44-20 13-27-46-27 45-21-12 33-44-49-13 8-23 47 19-2-53h23" id="bK"/><g id="ab"><use transform="matrix(0.05,0,0,0.05,0,0)" xlink:href="#bI"/><use transform="matrix(0.05,0,0,0.05,10,0)" xlink:href="#bJ"/><use transform="matrix(0.05,0,0,0.05,15,0)" xlink:href="#bJ"/><use transform="matrix(0.05,0,0,0.05,20,0)" xlink:href="#bK"/></g><path fill="#333" d="M27 0v-27h64v-190l-56 39v-29l58-41h29v221h61V0H27" id="bL"/><use transform="matrix(0.05,0,0,0.05,0,0)" xlink:href="#bL" id="ac"/></defs></g></svg>